<svg xmlns="http://www.w3.org/2000/svg" height="24" viewBox="0 -960 960 960" width="24"><path d="M290-2.308q-11.077 0-19.384-8.308-8.308-8.307-8.308-19.384t8.308-19.385q8.307-8.307 19.384-8.307t19.384 8.307q8.308 8.308 8.308 19.385 0 11.077-8.308 19.384Q301.077-2.308 290-2.308Zm340 0q-11.077 0-19.385-8.308-8.307-8.307-8.307-19.384t8.307-19.385q8.308-8.307 19.385-8.307 11.077 0 19.385 8.307 8.307 8.308 8.307 19.385 0 11.077-8.307 19.384Q641.077-2.308 630-2.308ZM270-88.27q-42.355 0-78.216-18.673t-59.591-49.883q-2.116-3.384-3.231-6.587-1.115-3.203-1.115-6.61 0-8.515 5.88-15.207 5.881-6.693 15.873-6.693 5.567 0 9.791 2.27 4.224 2.269 7.514 6.28 14.287 19.45 35.345 32.316 21.058 12.865 46.712 17.404l131.231-158.885-60.346-169.501q-3.808-11.076-1.616-26.692 2.193-15.615 9.539-27.961l108.962-175.424H317.115l-74.923 120.808-47.345-29.5 91.846-147.268H508q23.75 0 38.375 13.346t19.932 25.077l21 47.615q21.077 48.692 64.596 80.115 43.52 31.424 100.02 33.462v55.96q-65.423-1.769-119.654-36.096-54.23-34.327-89.807-94.058l-89.347 140.963 174.961 106.343v243.426h22.347q31.412 0 58.129-13.923t44.487-37.192q3.653-4.346 7.759-6.615 4.106-2.27 9.605-2.27 9.56 0 15.752 6.668 6.191 6.667 6.191 15.15 0 3.451-1.212 6.72-1.211 3.269-3.327 6.641-23.73 31.128-59.446 49.801-35.716 18.673-77.938 18.673H270Zm50.422-43.653h251.694v-204.924l-170.771-96.231 43.154 149.501-124.077 151.654ZM599.976-767.77q-30.13 0-51.168-21.062t-21.038-51.192q0-30.13 21.062-51.168t51.192-21.038q30.13 0 51.168 21.062t21.038 51.192q0 30.13-21.062 51.168t-51.192 21.038Z"/></svg>