<svg xmlns="http://www.w3.org/2000/svg" height="24" viewBox="0 -960 960 960" width="24"><path d="M741.654-52.116q-24.731 0-48.211-3.712-23.481-3.711-45.904-11.903L93.693-269.616l14.461-41.345 277.539 101.384 72.231-182.077-153.039-152.884q-23.808-22.962-19.231-55.942 4.577-32.981 34.115-50.365l150.847-88.077q13.885-8.039 29.019-9.097 15.134-1.057 29.211 4.673 13.885 5.231 24.596 16.135 10.712 10.904 16.327 26.096l13 42.5q15.231 49.962 46.115 84.923 30.885 34.962 79.732 52.347L730-586.422l41.538 13.23-38.5 115.999q-73.654-15-123.653-57.827-50-42.827-75.846-114.288L403.576-553.5l121.808 142.27-87.192 220.807 143.039 51.692 87.231-261.461q9.615 4.308 19.73 6.942 10.115 2.635 21.308 5.25l-87.347 264.731 37.616 13.731q20.231 7.269 39.923 10.519 19.693 3.25 41.962 3.25 24.731 0 47.654-4.423 22.923-4.423 44.538-13.154l32.653 33.23Q836.922-65.654 806-58.886q-30.923 6.77-64.346 6.77ZM653.961-707.77q-30 0-51.115-21.115Q581.731-750 581.731-780q0-30 21.115-51.115 21.115-21.115 51.115-21.115 29.808 0 51.019 21.115T726.191-780q0 30-21.211 51.115-21.211 21.115-51.019 21.115Z"/></svg>