<svg xmlns="http://www.w3.org/2000/svg" height="24" viewBox="0 -960 960 960" width="24"><path d="M274.423-179.501q-24.894 0-42.235-16.572t-17.341-41.466q0-17.807 10.057-31.884 10.058-14.076 26.173-20.923l161.347-63.5v-124.04q-62.847 74.885-127.02 108.808-64.172 33.923-145.865 38.154v-56.344q63.185-1.924 117.342-30.058 54.158-28.135 98.043-79.827l53.192-62.423q9.461-10.962 23.077-17.539 13.615-6.576 28.807-6.576h40q15.192 0 28.807 6.576 13.616 6.577 23.077 17.539l53.192 62.423q43.885 51.692 98.043 79.827 54.157 28.134 117.342 30.058v56.344q-81.693-4.231-145.865-38.154-64.173-33.923-127.02-108.808v124.04l161.347 63.5q16.115 6.847 26.173 20.923 10.057 14.077 10.057 31.964 0 24.766-17.341 41.362-17.341 16.596-42.235 16.596H400.808v-12.244q0-24.063 15.303-39.332 15.304-15.269 39.203-15.269h123.86q8.518 0 13.864-5.303 5.347-5.303 5.347-13.89 0-8.586-5.303-13.889-5.303-5.303-13.89-5.303H455.434q-40.396 0-66.703 26.308-26.308 26.307-26.308 66.653v12.269h-88ZM480-631.384q-30.192 0-51.211-21.019t-21.019-51.212q0-30.192 21.019-51.211T480-775.845q30.192 0 51.211 21.019t21.019 51.211q0 30.193-21.019 51.212-21.019 21.019-51.211 21.019Z"/></svg>